<?xml version="1.0" encoding="UTF-8"?>
<svg data-name="Layer 1" viewBox="0 0 562.5 562.5" xmlns="http://www.w3.org/2000/svg">
	<defs>
		<style>.cls-1{fill:#00baff;}</style>
	</defs>
	<path class="cls-1" d="m391.81 123c-6.36-24.37-28.61-40.26-53-33.91-30.73 8.48-36 37.09-40.27 60.39s-7.41 42.38-32.84 50.86c-21.19 6.36-43.44-5.3-51.92-26.49-8.47-22.25 3.18-45.56 26.49-51.91 22.28-6.08 36.8 4.34 50.06 18.22a167.45 167.45 0 0 1 4.06-17.76l0.3-1c-14.59-14-33.2-24.59-59.72-17.45-28.6 7.41-44.49 36-38.14 63.57l-49.76 87.88h6.35a37.66 37.66 0 0 1 10.6 2.12l40.26-71c13.77 22.27 41.32 33.92 66.72 26.48 29.15-9.1 37.14-30.74 41.5-51.45l7.23 7c10.63 8.45 23.34 13.75 40.27 8.45 22.28-6.36 36.05-30.72 31.81-54zm-35 40.26c-13.78 4.24-23.31-1.06-33.91-11.66l-7.1-7.67c4-20.93 9.23-34.21 27.23-38.94 14.84-4.24 30.73 5.29 33.91 22.24 3.22 15.87-6.32 31.77-20.09 36z"/>
	<path d="m175.62 337.09c-1.86-1-4.25-0.95-6.3-1.2-2.56-0.31-4.72-1.4-5.63-4a9.13 9.13 0 0 1 0.33-6.24c1.34-3.45 3.19-6.74 4.06-10.35a21.93 21.93 0 0 0-0.38-11.78 20.56 20.56 0 0 0-9.85-12c-11.4-6-25.16 1-28.66 13a43 43 0 0 0-1.19 4.88c-0.36 2.13-0.87 4.82-0.18 6.91a3.4 3.4 0 0 0 3.22 2.5 4.26 4.26 0 0 0 2.81-1.92c1.9-2.49 2.08-5.72 3.75-8.31a12 12 0 0 1 9.9-5.58 12.32 12.32 0 0 1 9.65 4.94c2.91 3.84 2.68 8.27 1.38 12.7-1.89 6.42-4 13.12 0.36 19.1a13.21 13.21 0 0 0 13.36 5.32 7.39 7.39 0 0 0 3.69-1.76c1.9-1.73 2.15-4.83-0.32-6.21z"/>
	<path d="M309.7,250.73a69.42,69.42,0,0,0,3,6.44,40.3,40.3,0,0,0,6.35,9.12,36.07,36.07,0,0,0,5.08,4.4h0c.29.15.63.38.73.28l4.93-4.44h0l1.36-1.23c-.35-4-1.8-7.62-3.25-11.28a37.84,37.84,0,0,0-3.31-6.46,31.77,31.77,0,0,0-3-4.07,12.9,12.9,0,0,0-3.91-3.12,6.53,6.53,0,0,0-2.2-.63,6.62,6.62,0,0,0-4.37,1,5.45,5.45,0,0,0-1.59,1.65,6.22,6.22,0,0,0-.78,2,9.49,9.49,0,0,0,.26,4.26A17.75,17.75,0,0,0,309.7,250.73Z"/>
	<path d="M365.09,241.58c1.06,3.79,2.14,7.58,4.26,10.94l.73.06c1.73-.11,3.42-.35,5.18-.35,1,0,2,.15,3.06.21a42.1,42.1,0,0,0,1.25-6.49,40.06,40.06,0,0,0-.48-11.09,70.61,70.61,0,0,0-1.55-6.92c-.73-2.69-2.11-5.61-4.9-6.69s-6.38.55-7.74,3.3c-1.49,3-1.38,6.64-1.11,9.89A37.69,37.69,0,0,0,365.09,241.58Z"/>
	<path d="m374 266.13a10 10 0 0 0-1.39 6.6c0.41 3.4 3.48 6.73 7 4.76a6.73 6.73 0 0 0 3.07-4.42c0.72-3.1 0.45-7.92-3-9.38a4.13 4.13 0 0 0-1.36-0.32c-1.78-0.11-3.32 1.14-4.32 2.76z"/>
	<path d="m353.46 282.78c3.51 2 11 2.28 9.91-3.64a8.77 8.77 0 0 0-8.93-6.82 6.32 6.32 0 0 0-3.27 1.22 4.55 4.55 0 0 0-1.78 3 4.8 4.8 0 0 0 0.73 3.08 9.08 9.08 0 0 0 3.34 3.16z"/>
	<path d="m306.08 120c-5-0.83-9.91-1.45-14.87-1.79 1.18 1 2.38 2.05 3.51 3.14l-0.3 1a167.45 167.45 0 0 0-4.06 17.76c-13.26-13.88-27.78-24.3-50.06-18.22-23.31 6.35-35 29.66-26.49 51.91 8.48 21.19 30.73 32.85 51.92 26.49 25.43-8.48 28.61-27.55 32.84-50.86 1.74-9.51 3.75-19.87 7.51-29.43z"/>
	<path d="m356.85 163.23c13.77-4.24 23.31-20.13 20.13-36-3.18-17-19.07-26.48-33.91-22.24-18 4.73-23.28 18-27.23 38.94l7.1 7.67c10.6 10.57 20.13 15.87 33.91 11.63z"/>
	<path d="M453.26,320c-.8-3.24-5.93-18.44-6.36-19.07a17.12,17.12,0,0,1,1.22-1.95c.39-.66.77-1.33,1.13-2a43.41,43.41,0,0,0,1.85-4,34.74,34.74,0,0,0,2.16-7.67,28.21,28.21,0,0,0-1.34-14.08,33.46,33.46,0,0,0-7.88-12,52.35,52.35,0,0,0-13.22-9.39,69.37,69.37,0,0,0-12.94-5.14,49.54,49.54,0,0,0-7-1.4c-.47-.06-5.23-.31-5.26-.67-1.31-15.44.23-33.36-4.23-49.8-3.55-13.21-10-23.23-17.74-33.37-5.7,8.22-13.74,14.67-23.58,17.48-17,5.3-29.67,0-40.26-8.47l-7.23-7c-2.83,13.41-7.28,27.15-17.91,37.68a125.6,125.6,0,0,1,25.14,2.12c11.65,1.06,23.3-3.18,32.84-10.59,7.72-7.11,15.86-9.92,26.49-5.3,9.53,6.35,10.59,21.19,10.59,32.84l1.06,26.49c.16,3.91,0,9.18,4,11.35a7.13,7.13,0,0,0,1.76.68c1.46.36,2.89.87,4.33,1.32,2.22.7,4.45,1.36,6.68,2,1.93.59,3.7,1.48,5.6,2,4.26,1.24,8.52,2.34,12.47,4.43,4.4,2.33,8.35,5.87,10.21,10.5a19.43,19.43,0,0,1-.8,15.13c-3.7,8-11.26,12.94-18.52,17.39A131.11,131.11,0,0,1,392,321.39a174.29,174.29,0,0,1-57.51,10.12,158.38,158.38,0,0,1-25.36-1.94c-19.07-2.12-29.67,22.25-18,39.2a43.51,43.51,0,0,0,8.84,8,51.73,51.73,0,0,0,10.72,5.51,67.24,67.24,0,0,0,12.16,3.29,90.23,90.23,0,0,0,13.22,1.3,118.63,118.63,0,0,0,13.85-.45c4.72-.42,9.41-1.09,14.07-2s9.3-2,13.88-3.27,8.92-2.7,13.29-4.32q6.24-2.31,12.28-5.14c3.7-1.74,7.34-3.64,10.86-5.73a88.73,88.73,0,0,0,9-6.1,46.28,46.28,0,0,0,4.16-3.49c1.3-1.28,2.53-2.64,3.7-4,.59-.7,1.16-1.41,1.72-2.13a14.58,14.58,0,0,0,1.59-2.09.71.71,0,0,0,0-.72c-.32-.53-1.07-.1-1.41.19C423.26,356.17,359.61,390,312.35,372c-4.24-2.12-13.78-6.36-14.83-15.89,41.32,12.71,66.74,1.06,66.74,1.06a1.06,1.06,0,0,0,0-2.12s-33.9,5.3-65.69-6.36c3.18-11.65,12.72-7.42,26.49-6.36,46.42.81,77.49-6.53,111.25-31.78,5.3,10.59,6.36,23.31,6.36,23.31,7.07-1.36,13.72,2.43,11.65,15.89C440.25,437.9,298,466.57,262.55,387.84a80.44,80.44,0,0,1,14.83-84.76c2.71-2.73,2.64-5.74,0-8.47-6.35-9.54-29.66-26.49-24.36-57.22a44.39,44.39,0,0,1,10.77-22.93c-23.27,3.53-47-7.77-59.51-27.92l-40.26,71a37.66,37.66,0,0,0-10.6-2.12h-6.35l49.79-87.93a53.77,53.77,0,0,1,1.16-28c-36.2,21.61-62.25,59.78-60.49,117,0,1.49-3.34,1.77-4.29,2a30.47,30.47,0,0,0-6.07,2.23,48.14,48.14,0,0,0-7.36,4,60.37,60.37,0,0,0-18,20.27c-.64,1.15-1.25,2.32-1.83,3.5a63.72,63.72,0,0,0,5.11,64.59c11.37,16.22,31.57,27.52,51.55,27.37,1.74-.19,1.62,2.2,2.47,3.4,25.78,56.38,83.61,90.23,150,91,69.18,1.35,128.91-35.46,151.68-92.93C465.06,370.26,480.11,323.29,453.26,320ZM170.37,362.41c-25.61,9.94-58.58-12.67-61.45-40.26-1.75-23,7.6-46.14,32.85-50.85,19.06-3.49,39.53,5.24,45.56,38.14C191.56,332.75,187.33,355,170.37,362.41Z"/>
</svg>
