<?xml version="1.0" encoding="UTF-8"?>
<svg data-name="Layer 1" viewBox="0 0 562.5 562.5" xmlns="http://www.w3.org/2000/svg">
	<path d="m175.62 341.28c-1.86-1-4.25-0.95-6.3-1.2-2.56-0.31-4.72-1.4-5.63-4a9.13 9.13 0 0 1 0.33-6.24c1.33-3.45 3.19-6.74 4.06-10.35a21.93 21.93 0 0 0-0.38-11.78 20.56 20.56 0 0 0-9.85-12c-11.4-6-25.16 1-28.66 13a43 43 0 0 0-1.22 4.88c-0.36 2.13-0.87 4.82-0.18 6.91a3.4 3.4 0 0 0 3.21 2.5 4.26 4.26 0 0 0 2.81-1.92c1.9-2.49 2.08-5.72 3.76-8.31a11.93 11.93 0 0 1 9.92-5.54 12.31 12.31 0 0 1 9.65 4.94c2.91 3.84 2.68 8.27 1.38 12.7-1.89 6.42-4 13.12 0.36 19.1a13.21 13.21 0 0 0 13.36 5.32 7.39 7.39 0 0 0 3.69-1.76c1.91-1.77 2.16-4.87-0.31-6.25z"/>
	<path d="m356.85 167.42c13.77-4.24 23.31-20.13 20.13-36-3.18-16.95-19.07-26.48-33.91-22.24-18 4.73-23.28 18-27.23 38.94l7.1 7.67c10.6 10.57 20.13 15.87 33.91 11.63z"/>
	<path d="M453.26,324.22c-.8-3.24-5.93-18.44-6.36-19.07a17.12,17.12,0,0,1,1.22-1.95c.39-.66.77-1.33,1.13-2a43.41,43.41,0,0,0,1.85-4,34.74,34.74,0,0,0,2.16-7.67,28.21,28.21,0,0,0-1.34-14.08,33.46,33.46,0,0,0-7.88-12,52.35,52.35,0,0,0-13.22-9.39A69.37,69.37,0,0,0,417.88,249a49.54,49.54,0,0,0-7-1.4c-.47-.06-5.23-.31-5.26-.67-1.31-15.44.23-33.36-4.23-49.8-2.86-10.67-7.64-19.2-13.42-27.45a56.75,56.75,0,0,0,11.43-43.85l0-.11-.11-.45C395,107,380.85,89.54,360.88,84.82s-40.77,3.24-53.25,18.75a70.72,70.72,0,0,0-10,17.62c-8.58-9.09-19.37-17.47-32.74-21.17A62.2,62.2,0,0,0,244,97.84a72.81,72.81,0,0,0-20.59,4.31,62.21,62.21,0,0,0-32.82,28.44,66,66,0,0,0-7.51,23.47c-28.17,22.64-47.08,57.61-45.57,106.6,0,1.49-3.34,1.77-4.29,2a30.47,30.47,0,0,0-6.07,2.23,48.14,48.14,0,0,0-7.36,4,60.37,60.37,0,0,0-18,20.27c-.64,1.15-1.25,2.32-1.83,3.5a63.72,63.72,0,0,0,5.11,64.59c11.37,16.22,31.57,27.52,51.55,27.37,1.74-.19,1.62,2.2,2.47,3.4,25.78,56.38,83.61,90.23,150,91,69.19,1.35,128.91-35.46,151.68-92.93C465.06,374.45,480.11,327.48,453.26,324.22ZM170.37,366.6c-25.61,9.94-58.58-12.67-61.45-40.26-1.75-23,7.6-46.14,32.85-50.85,19.06-3.49,39.53,5.24,45.56,38.14C191.56,336.94,187.33,359.19,170.37,366.6Zm33.91-175.87-40.26,71a37.66,37.66,0,0,0-10.6-2.12h-6.35l49.79-87.93c-6.35-27.55,9.54-56.16,38.14-63.57,26.52-7.14,45.13,3.42,59.72,17.45l-.3,1a167.45,167.45,0,0,0-4.06,17.76C277.1,130.44,262.58,120,240.3,126.1c-23.31,6.35-35,29.66-26.49,51.91,8.48,21.19,30.73,32.85,51.92,26.49,25.43-8.48,28.61-27.55,32.84-50.86s9.54-51.91,40.27-60.39c24.36-6.35,46.61,9.54,53,33.91,4.24,23.31-9.53,47.67-31.78,54-17,5.3-29.67,0-40.27-8.47l-7.22-7c-4.37,20.71-12.36,42.35-41.51,51.45C245.6,224.63,218.05,213,204.28,190.73Zm250,163.16C440.25,442.09,298,470.76,262.55,392a80.44,80.44,0,0,1,14.83-84.76c2.71-2.73,2.64-5.74,0-8.47-6.35-9.54-29.66-26.49-24.36-57.22a43.49,43.49,0,0,1,6-16.46,59.39,59.39,0,0,0,9.77-1.52,61.41,61.41,0,0,0,32.67-20.09,127.6,127.6,0,0,1,18.27,2.05c11.66,1.06,23.31-3.18,32.85-10.59,7.72-7.11,15.86-9.92,26.49-5.3,9.53,6.35,10.59,21.19,10.59,32.84L390.75,249c.16,3.91,0,9.18,4,11.35a7.13,7.13,0,0,0,1.76.68c1.46.36,2.9.87,4.33,1.32,2.22.7,4.45,1.36,6.68,2,1.93.59,3.7,1.48,5.6,2,4.26,1.24,8.52,2.34,12.46,4.43,4.41,2.33,8.36,5.87,10.22,10.5a19.43,19.43,0,0,1-.8,15.13c-3.7,8-11.26,12.94-18.52,17.39A131.11,131.11,0,0,1,392,325.58a174.29,174.29,0,0,1-57.51,10.12,158.38,158.38,0,0,1-25.36-1.94c-19.07-2.12-29.67,22.25-18,39.2a43.51,43.51,0,0,0,8.84,8,51.73,51.73,0,0,0,10.72,5.51,67.24,67.24,0,0,0,12.16,3.29A90.23,90.23,0,0,0,336.1,391a118.63,118.63,0,0,0,13.85-.45c4.72-.42,9.41-1.09,14.07-2s9.3-2,13.88-3.27,8.92-2.7,13.29-4.32q6.24-2.31,12.28-5.14c3.7-1.74,7.34-3.64,10.86-5.73a88.73,88.73,0,0,0,9-6.1,46.28,46.28,0,0,0,4.16-3.49c1.3-1.28,2.53-2.64,3.7-4,.58-.7,1.16-1.41,1.72-2.13a14.58,14.58,0,0,0,1.59-2.09.71.71,0,0,0,0-.72c-.32-.53-1.08-.1-1.41.19-9.87,8.59-73.52,42.43-120.78,24.37-4.24-2.12-13.78-6.36-14.83-15.89,41.32,12.71,66.74,1.06,66.74,1.06a1.06,1.06,0,0,0,0-2.12s-33.9,5.3-65.69-6.36c3.18-11.65,12.72-7.42,26.49-6.36,46.42.81,77.49-6.53,111.25-31.78,5.3,10.59,6.36,23.31,6.36,23.31C449.74,336.64,456.39,340.43,454.32,353.89Z"/>
	<path d="m331.13 269.49-6.3 5.67c-0.63 0.56-5.36-4.21-5.81-4.68a40.3 40.3 0 0 1-6.35-9.12 69.42 69.42 0 0 1-3-6.44c-1.05-2.57-1.73-5.74-0.17-8.29a6.43 6.43 0 0 1 8.16-2.08c3 1.49 5.13 4.45 6.88 7.2a37.84 37.84 0 0 1 3.31 6.46c1.48 3.66 2.93 7.32 3.28 11.28z"/>
	<path d="M365.09,245.77c1.06,3.79,2.14,7.58,4.26,10.94l.73.06c1.73-.11,3.42-.35,5.18-.35,1,0,2,.15,3.06.21a42.1,42.1,0,0,0,1.25-6.49,40,40,0,0,0-.48-11.09,70.61,70.61,0,0,0-1.55-6.92c-.73-2.69-2.11-5.62-4.9-6.7a6.41,6.41,0,0,0-7.74,3.31c-1.49,3-1.38,6.64-1.11,9.89A37.69,37.69,0,0,0,365.09,245.77Z"/>
	<path d="m378.36 267.56a4.13 4.13 0 0 1 1.36 0.32c3.45 1.46 3.72 6.28 3 9.38a6.73 6.73 0 0 1-3.07 4.42c-3.57 2-6.64-1.36-7-4.76a10 10 0 0 1 1.39-6.6c0.96-1.62 2.5-2.87 4.32-2.76z"/>
	<path d="m353.46 287c3.51 2 11 2.28 9.91-3.64a8.77 8.77 0 0 0-8.93-6.82 6.32 6.32 0 0 0-3.27 1.22 4.55 4.55 0 0 0-1.78 3 4.8 4.8 0 0 0 0.73 3.08 9.08 9.08 0 0 0 3.34 3.16z"/>
	<path d="m312.67 261.36a40 40 0 0 0 6.35 9.11 35.4 35.4 0 0 0 5.08 4.41c1.81-1.49 3.73-2.83 5.67-4.16l1.36-1.23c-0.35-4-1.8-7.62-3.25-11.28a37.84 37.84 0 0 0-3.31-6.46c-1.75-2.75-3.88-5.71-6.88-7.19a6.42 6.42 0 0 0-8.16 2.07c-1.56 2.55-0.88 5.72 0.17 8.29a69.42 69.42 0 0 0 2.97 6.44z"/>
	<path d="m378.36 267.56a4.13 4.13 0 0 1 1.36 0.32c3.45 1.46 3.72 6.28 3 9.38a6.73 6.73 0 0 1-3.07 4.42c-3.57 2-6.64-1.36-7-4.76a10 10 0 0 1 1.39-6.6c0.96-1.62 2.5-2.87 4.32-2.76z"/>
	<path d="m353.46 287c3.51 2 11 2.28 9.91-3.64a8.77 8.77 0 0 0-8.93-6.82 6.32 6.32 0 0 0-3.27 1.22 4.55 4.55 0 0 0-1.78 3 4.8 4.8 0 0 0 0.73 3.08 9.08 9.08 0 0 0 3.34 3.16z"/>
</svg>
