<?xml version="1.0" encoding="UTF-8"?>
<svg data-name="Layer 1" viewBox="0 0 1557 562.5" xmlns="http://www.w3.org/2000/svg">
	<path d="m186.86 343.1c-1.86-1-4.25-1-6.3-1.2-2.56-0.32-4.72-1.4-5.63-4a9.11 9.11 0 0 1 0.33-6.23c1.33-3.45 3.19-6.74 4.06-10.35a21.93 21.93 0 0 0-0.38-11.78 20.61 20.61 0 0 0-9.85-12.05c-11.4-6-25.16 1-28.66 13a43.14 43.14 0 0 0-1.22 4.89c-0.36 2.13-0.87 4.82-0.18 6.91a3.4 3.4 0 0 0 3.22 2.5 4.29 4.29 0 0 0 2.81-1.92c1.9-2.49 2.08-5.72 3.75-8.32a12 12 0 0 1 9.93-5.54 12.33 12.33 0 0 1 9.65 4.95c2.91 3.83 2.68 8.26 1.38 12.69-1.89 6.43-4.05 13.13 0.36 19.1a13.22 13.22 0 0 0 13.36 5.33 7.48 7.48 0 0 0 3.69-1.76c1.9-1.75 2.15-4.84-0.32-6.22z"/>
	<path d="m368.09 169.24c13.77-4.24 23.31-20.13 20.13-36-3.18-17-19.07-26.48-33.91-22.25-18 4.74-23.29 18-27.23 39l7.1 7.67c10.6 10.52 20.13 15.81 33.91 11.58z"/>
	<path d="M464.5,326c-.8-3.24-5.93-18.44-6.36-19.07a16.29,16.29,0,0,1,1.22-2c.39-.66.77-1.33,1.12-2a42.11,42.11,0,0,0,1.86-4,34.74,34.74,0,0,0,2.16-7.67,28.26,28.26,0,0,0-1.34-14.09,33.42,33.42,0,0,0-7.88-12,52.22,52.22,0,0,0-13.23-9.39,68.33,68.33,0,0,0-12.93-5.14,49.54,49.54,0,0,0-7-1.4c-.47-.06-5.23-.32-5.26-.67-1.31-15.44.23-33.36-4.23-49.8-2.86-10.67-7.64-19.21-13.42-27.45A56.75,56.75,0,0,0,410.6,127.6l0-.11-.11-.45c-4.28-18.27-18.38-35.68-38.35-40.4s-40.77,3.24-53.25,18.75a70.72,70.72,0,0,0-10,17.62c-8.58-9.09-19.37-17.47-32.74-21.17a62.2,62.2,0,0,0-20.89-2.18,72.79,72.79,0,0,0-20.59,4.3,62.27,62.27,0,0,0-32.82,28.45,66,66,0,0,0-7.51,23.47c-28.17,22.63-47.08,57.61-45.57,106.59,0,1.49-3.34,1.78-4.29,2a30.79,30.79,0,0,0-6.08,2.23,47.65,47.65,0,0,0-7.35,4,60.37,60.37,0,0,0-18,20.27c-.64,1.15-1.25,2.31-1.83,3.5a63.69,63.69,0,0,0,5.11,64.59c11.37,16.22,31.57,27.52,51.55,27.36,1.74-.18,1.62,2.2,2.47,3.41,25.78,56.38,83.61,90.23,150,91,69.18,1.36,128.91-35.45,151.68-92.93C476.3,376.26,491.35,329.3,464.5,326ZM181.61,368.42C156,378.36,123,355.74,120.16,328.16c-1.75-23,7.6-46.14,32.85-50.85,19.06-3.49,39.53,5.24,45.56,38.14C202.8,338.76,198.57,361,181.61,368.42Zm33.91-175.88-40.26,71a37.66,37.66,0,0,0-10.6-2.12H158.3l49.8-87.94c-6.35-27.54,9.54-56.15,38.14-63.57,26.52-7.13,45.13,3.43,59.72,17.46l-.3,1a166.78,166.78,0,0,0-4.06,17.76c-13.26-13.88-27.78-24.3-50.06-18.22-23.31,6.35-35,29.66-26.49,51.91,8.48,21.19,30.73,32.85,51.92,26.49,25.43-8.48,28.61-27.55,32.84-50.86s9.54-51.91,40.27-60.39c24.36-6.36,46.61,9.54,53,33.9,4.24,23.31-9.53,47.68-31.78,54-17,5.3-29.67,0-40.27-8.48l-7.23-6.95c-4.36,20.71-12.35,42.34-41.5,51.45C256.84,226.45,229.29,214.79,215.52,192.54Zm250,163.17c-14.07,88.19-156.37,116.86-191.77,38.14a80.44,80.44,0,0,1,14.83-84.76c2.71-2.73,2.64-5.74,0-8.48-6.35-9.53-29.66-26.48-24.36-57.21a43.49,43.49,0,0,1,6-16.46,60.48,60.48,0,0,0,9.77-1.52,61.41,61.41,0,0,0,32.67-20.09,127.6,127.6,0,0,1,18.27,2c11.66,1.06,23.31-3.18,32.85-10.6,7.72-7.11,15.86-9.91,26.49-5.29,9.53,6.35,10.59,21.19,10.59,32.84L402,250.82c.16,3.91,0,9.17,4,11.35a7.54,7.54,0,0,0,1.76.68c1.46.36,2.89.87,4.33,1.32,2.22.7,4.45,1.36,6.68,2,1.93.58,3.7,1.48,5.6,2,4.26,1.24,8.52,2.33,12.46,4.43,4.41,2.33,8.36,5.87,10.22,10.49a19.46,19.46,0,0,1-.8,15.14c-3.7,8-11.26,12.93-18.52,17.39a131.07,131.07,0,0,1-24.45,11.71,173.77,173.77,0,0,1-57.51,10.12,159.53,159.53,0,0,1-25.36-1.93c-19.07-2.12-29.67,22.25-18,39.2a43.46,43.46,0,0,0,8.84,8A51.29,51.29,0,0,0,322,388.26a68.07,68.07,0,0,0,12.16,3.29,91.63,91.63,0,0,0,13.22,1.3,118.63,118.63,0,0,0,13.85-.45c4.72-.42,9.41-1.1,14.07-2s9.3-2,13.88-3.26,8.92-2.7,13.29-4.32q6.24-2.31,12.28-5.14c3.7-1.75,7.34-3.64,10.86-5.74a87,87,0,0,0,9-6.09,44.78,44.78,0,0,0,4.16-3.5c1.3-1.28,2.53-2.63,3.7-4,.58-.7,1.16-1.41,1.72-2.13a15.16,15.16,0,0,0,1.59-2.09.71.71,0,0,0,0-.72c-.32-.53-1.08-.1-1.41.19C434.5,362.18,370.84,396,323.59,378c-4.24-2.12-13.78-6.36-14.84-15.89,41.33,12.71,66.75,1.05,66.75,1.05a1.06,1.06,0,1,0,0-2.11s-33.9,5.29-65.69-6.36c3.18-11.66,12.72-7.42,26.49-6.36,46.42.81,77.49-6.53,111.25-31.78,5.3,10.59,6.36,23.31,6.36,23.31C461,338.45,467.63,342.24,465.56,355.71Z"/>
	<path d="m342.37 271.31-6.3 5.67c-0.63 0.56-5.36-4.22-5.81-4.69a40 40 0 0 1-6.35-9.11 69.42 69.42 0 0 1-3-6.44c-1.05-2.58-1.73-5.74-0.17-8.29s5.41-3.43 8.16-2.08c3 1.48 5.13 4.45 6.88 7.19a38.21 38.21 0 0 1 3.31 6.46c1.48 3.67 2.91 7.33 3.28 11.29z"/>
	<path d="M376.32,247.59c1.07,3.79,2.15,7.58,4.27,10.94l.73.06c1.73-.11,3.42-.36,5.18-.36,1,0,2,.16,3.06.22a42.1,42.1,0,0,0,1.25-6.49,40.11,40.11,0,0,0-.48-11.1c-.39-2.33-.93-4.63-1.55-6.92-.73-2.68-2.11-5.61-4.9-6.69a6.41,6.41,0,0,0-7.74,3.3c-1.49,3-1.38,6.65-1.11,9.9A37.67,37.67,0,0,0,376.32,247.59Z"/>
	<path d="m389.6 269.37a4.15 4.15 0 0 1 1.36 0.33c3.45 1.45 3.72 6.28 3 9.38a6.73 6.73 0 0 1-3.07 4.42c-3.57 2-6.64-1.37-7.05-4.76a10 10 0 0 1 1.39-6.6c1.02-1.62 2.55-2.88 4.37-2.77z"/>
	<path d="m364.7 288.79c3.51 2 11 2.27 9.91-3.64a8.75 8.75 0 0 0-8.93-6.82 6.32 6.32 0 0 0-3.27 1.22 4.55 4.55 0 0 0-1.78 3 4.87 4.87 0 0 0 0.72 3.08 9.18 9.18 0 0 0 3.35 3.16z"/>
	<path d="m323.9 263.18a40.37 40.37 0 0 0 6.36 9.11 35.4 35.4 0 0 0 5.08 4.41c1.81-1.49 3.73-2.83 5.67-4.16l1.36-1.23c-0.35-4-1.8-7.62-3.25-11.29a38.21 38.21 0 0 0-3.31-6.46c-1.75-2.74-3.88-5.71-6.88-7.19-2.75-1.35-6.51-0.62-8.16 2.08s-0.88 5.71 0.17 8.29c0.89 2.19 1.86 4.35 2.96 6.44z"/>
	<path d="m389.6 269.37a4.15 4.15 0 0 1 1.36 0.33c3.45 1.45 3.72 6.28 3 9.38a6.73 6.73 0 0 1-3.07 4.42c-3.57 2-6.64-1.37-7.05-4.76a10 10 0 0 1 1.39-6.6c1.02-1.62 2.55-2.88 4.37-2.77z"/>
	<path d="m364.7 288.79c3.51 2 11 2.27 9.91-3.64a8.75 8.75 0 0 0-8.93-6.82 6.32 6.32 0 0 0-3.27 1.22 4.55 4.55 0 0 0-1.78 3 4.87 4.87 0 0 0 0.72 3.08 9.18 9.18 0 0 0 3.35 3.16z"/>
	<path d="m752.56 304.35a15.87 15.87 0 0 0-11.84 6.8c-2.93 4.07-4.06 9.46-3.43 16.19s2.71 11.66 6.29 15.15a15.07 15.07 0 0 0 12.7 4.47 15.94 15.94 0 0 0 11.62-6.91c3-4.1 4.19-9.48 3.64-16.17s-2.61-11.57-6.24-15a15.58 15.58 0 0 0-12.74-4.53z"/>
	<path d="m637 190.07a16.39 16.39 0 0 0 12.08-7.17c3-4.25 4.15-9.7 3.38-16.37s-3.13-11.92-7.06-15.36a17.33 17.33 0 0 0-13.6-4.43 16.42 16.42 0 0 0-12.22 7.07c-3 4.21-4.1 9.68-3.26 16.39s3.26 12 7.2 15.47a16.89 16.89 0 0 0 13.48 4.4z"/>
	<path d="m1085.2 175.14a15.71 15.71 0 0 0 12.22-4.72c3.32-3.34 5.09-8.24 5.27-14.72s-1.32-11.51-4.51-15.1a16.41 16.41 0 0 0-11.92-5.7 15.27 15.27 0 0 0-12.07 4.61q-4.9 5-5 14.76-0.17 10 4.34 15.29a15.46 15.46 0 0 0 11.67 5.58z"/>
	<path d="m1298.9 152.92a17.19 17.19 0 0 0-10.37-4.56c-4.28-0.48-7.87 0.21-10.77 2s-5 4.8-6.12 8.87q15.35 1.6 30.67 3.34a11.31 11.31 0 0 0-3.41-9.65z"/>
	<path d="M1467.43,309.32a52.8,52.8,0,0,0-17-24.31,56.65,56.65,0,0,0-28.14-11.86,58.11,58.11,0,0,0-16.13,0,32.74,32.74,0,0,0,10.17-19.48c.35-2.61.71-5.23,1.06-7.85.71-5.26,3.4-25.28,4.45-33,.35-2.61.71-5.23,1.06-7.85,1.08-8-5.27-15.59-14.2-16.9q-17.52-2.56-35.09-4.94A49.29,49.29,0,0,0,1351.7,185a67.14,67.14,0,0,0,1.42-8.15c1.3-11.78-.39-22.69-5.09-32.48a60.17,60.17,0,0,0-22.27-24.78A79.3,79.3,0,0,0,1292.25,108c-12.82-1.54-24.71-.33-35.28,3.63-1,.37-1.9.78-2.84,1.18a17.42,17.42,0,0,0-14.31-10.26L1224.56,101c-7.67-.94-68.15-6.14-68.16-6-9.18-.72-16.89,5.72-17.21,14.31,0,1.45-.11,2.9-.16,4.35a65.74,65.74,0,0,0-17-13.79,78.5,78.5,0,0,0-34.75-9.87c-12.82-.71-24.66,1.34-35.13,6.11a58.25,58.25,0,0,0-25.08,21.53,61.46,61.46,0,0,0-14.87-17.24c-11.79-9.41-26.34-14.44-43.1-14.75-12.79-.24-24.43,2.34-34.53,7.69a56.62,56.62,0,0,0-20.38,18.11A50.45,50.45,0,0,0,871.43,86,46.53,46.53,0,0,0,842,95.63,49.41,49.41,0,0,0,813,87.19c-5.74,0-64.42,2.38-64.42,2.54q-1.06-12.93-2.14-25.85a17.59,17.59,0,0,0-18.27-16q-18,.87-36.07,1.93a16.12,16.12,0,0,0-15.13,18l3.33,32.1c.22,2.09,1,9.77,1.23,11.86,0,.25,0,.5.08.74a59.76,59.76,0,0,0-12.37-9,56.36,56.36,0,0,0-32-6.65c-7.6.48-64.32,6.4-64.31,6.54a15.83,15.83,0,0,0-11.08,6.35,17.25,17.25,0,0,0-3.1,12.79q8.19,59.1,16.39,118.19a57.91,57.91,0,0,0,17.57,33.95c-3.36.83-51.11,7.89-51.09,8-8.67,1.35-14.45,10.27-12.92,19.87l13.86,87.55c3.19,19.91,19.63,33.41,36.67,30.32q59.13-10.62,118.6-18.81c8.12-1.12,14-9.27,13.31-18.38a52.17,52.17,0,0,0,10.09,7.32c9,5,20.15,5.39,30.39,4.18,6.83-1.39,109.45-11.42,109.5-10.89,6.22-.5,11.36-5,13.4-11a29.62,29.62,0,0,0,22.45,8.21q8-.54,16-1c8.34-.53,14.9-8.19,14.63-17.16,0-.15,0-.3,0-.46a55.49,55.49,0,0,0,12.91,9.27,62.06,62.06,0,0,0,31.76,6.64c15.25-.65,28.37-5.76,39.19-15.21,1-.86,1.92-1.76,2.84-2.67.4,8.45,7,15,15.14,14.81q16.18-.36,32.37-.55c8.37-.1,15.3-7.18,15.49-15.86l.66-13.38c-.3,16.08,12,29,27.46,29.08q9.75,0,19.5.14c1.82,0,53.07.45,103.83,2.95,50.77,2.16,101,6.38,101,6.37a16.89,16.89,0,0,0,1.74,0q-1.18,10.73-2.36,21.44a14.31,14.31,0,0,0,13.33,15.88q8,.62,15.88,1.28c17.09,1.39,32.81-10.78,35.05-27.34l.69-5.15a56.94,56.94,0,0,0,11.73,2.47,56.22,56.22,0,0,0,29.33-4.59,56.79,56.79,0,0,0,23-19,66.8,66.8,0,0,0,11.46-28.9C1471.37,329,1470.66,318.64,1467.43,309.32ZM693.72,66.73q17.94-1.11,35.87-2,1.39,15.92,2.8,31.83-17.76,1-35.51,2.22Q695.29,82.75,693.72,66.73ZM698,110.58q17.69-1.24,35.38-2.29,4.5,51.31,9,102.62-10.3.81-20.6,1.68c-7.51.64-14.24-5.23-15-13.16ZM575.22,120.64q17.26-1.42,34.55-2.65l1.83,14.55a29,29,0,0,1,10.24-12.7,34.59,34.59,0,0,1,17.33-5.9,39.45,39.45,0,0,1,22.63,4.61,45.37,45.37,0,0,1,17.43,17.22q6.9,11.53,8.54,27.57T685.14,192q-4.26,12.6-13.08,20a37.21,37.21,0,0,1-20.46,8.69,33.76,33.76,0,0,1-17.68-2.37,32.25,32.25,0,0,1-12.85-10.25q4.33,31.38,8.65,62.76c-18.53,2.36-35.83-11.95-38.74-32.28Q583.09,179.59,575.22,120.64Zm120.72,264q-16.12,2.16-32.24,4.5s-7.5-62.86-7.5-62.89c-.72-6.09-5.8-10.45-11.33-9.72s-9.39,6.31-8.62,12.42c0,0,0,0,0,.08l1.39,11.44q3.24,25.78,6.47,51.58Q628,394.53,612,397.15q-4.44-32.06-8.89-64.13c-1.14-5.73-6-9.72-11.28-8.92S583,330.18,583.43,336l9,64.37q-7.92,1.35-15.84,2.74c-8.9,1.58-17.41-5.45-19-15.74q-6.69-43.68-13.39-87.36,16.63-2.66,33.3-5.13.83,5.71,1.63,11.42c4.46-8.26,12.08-14.3,21.48-15.61,11.75-1.65,22.79,4.44,29.12,14.47,3.7-11.64,13.21-20.47,25.35-21.6,16.62-1.54,31.25,12.15,33.15,30Zm-45.58-116.4-3,.36c-2.18-17.89,12.58-34.27,29.28-36q60.34-6.24,120.85-10.09c.21,3,.43,6,.64,9,.86,12.43-8,23.17-19.78,24.09Q714.29,260.62,650.36,268.27ZM808.11,371.86q-16.2,1.54-32.39,3.25-.57-7.11-1.16-14.22a30.31,30.31,0,0,1-9.9,12.47,32.59,32.59,0,0,1-16,6.05A33.53,33.53,0,0,1,728,375.36q-9.63-5.34-16.09-16.77t-8.15-27.48q-1.66-16,2.42-28.63t12.79-20a35.36,35.36,0,0,1,20.13-8.45,33,33,0,0,1,17.46,2.65,29.07,29.07,0,0,1,12,10.34c-.65-7.86,4.8-14.73,12.18-15.32q10.1-.81,20.19-1.54Zm52.08-4.46q-16.23,1.25-32.44,2.67-2.79-43.6-5.59-87.21c-.51-7.78,5.07-14.49,12.45-14.94q10.1-.63,20.21-1.19ZM854,250.8q-16.87.88-33.75,1.95l-2-31.43q17-1,34.09-1.75Q853.14,235.19,854,250.8Zm58.4,112.9q-8.05.48-16.13,1c-9,.58-16.69-6.8-17.16-16.54q-3-64.74-6-129.47l12.47-.46a21.94,21.94,0,0,1,22.42,21.39ZM906.1,188.59A13.64,13.64,0,0,1,893,202.82q-10.32.3-20.63.67S869.48,143,869.48,143a10.92,10.92,0,0,0-11.13-10.36A10.31,10.31,0,0,0,848.3,143.6s0,.05,0,.07.54,11,.53,11q1.33,24.81,2.65,49.63-17.13.74-34.25,1.66-2.06-30.9-4.13-61.79A10.89,10.89,0,0,0,802,134.6a10.28,10.28,0,0,0-9.77,10.52q2.12,31,4.22,62-17.06,1-34.12,2.26L754,107.15q17.7-.93,35.4-1.66l.78,11A30.41,30.41,0,0,1,814,103.76a32.82,32.82,0,0,1,29.41,16.61,30.48,30.48,0,0,1,28.35-18c17.56.19,31.82,14.67,32.41,31.86Q905.14,161.42,906.1,188.59ZM961,327.8a11,11,0,0,0,9.91,5.12q8.86-.29,11.6-10,17.49-.45,35-.71c-2.35,12.08-7.6,21.62-15.64,28.69s-18,10.83-29.8,11.28a48.06,48.06,0,0,1-24.61-5.12,41.78,41.78,0,0,1-17.22-16.89c-4.23-7.47-6.54-16.41-6.86-26.81s1.41-19.33,5.26-27.15A42.68,42.68,0,0,1,945.25,268a50.14,50.14,0,0,1,25.16-6.7c12.24-.21,22.57,3.11,30.94,9.84s13.71,16.16,16.08,28.3q-17.61.17-35.23.55c-2.12-6.38-6.13-9.52-12-9.38a11.46,11.46,0,0,0-9.84,5.61c-2.38,3.65-3.47,8.93-3.32,15.85S958.48,324.25,961,327.8ZM923.07,226l-.27-8.82q29.6-.68,59.19-.78a30.33,30.33,0,0,1,30.35,30.31q-33.58,0-67.18.74C933.35,247.69,923.46,238.13,923.07,226Zm36.21-58.05a12.18,12.18,0,0,0,10.43,5.44q9.35,0,12.24-9.58,18.42.14,36.83.48-3.72,18-16.49,28.14c-8.52,6.78-19,10.2-31.43,10.25a54.11,54.11,0,0,1-26-5.94,45,45,0,0,1-18.12-17.45q-6.67-11.4-7.18-27c-.33-10.27,1.52-19.26,5.61-26.94a41.72,41.72,0,0,1,17.6-17.64q11.5-6.11,26.5-5.87c12.88.2,23.75,3.85,32.56,10.86s14.41,16.62,16.91,28.84q-18.56-.44-37.1-.65c-2.22-6.44-6.44-9.71-12.63-9.77a11.81,11.81,0,0,0-10.37,5.28c-2.51,3.56-3.67,8.81-3.53,15.72S956.66,164.29,959.28,167.92Zm81.38-40.87a43.46,43.46,0,0,1,19-16.55q12.06-5.5,27.23-4.72a60.49,60.49,0,0,1,26.95,7.49,47.42,47.42,0,0,1,18.27,18.15q6.48,11.45,5.89,26.17c-.38,9.83-3,18.3-7.77,25.47a45,45,0,0,1-19.08,16.21,58.33,58.33,0,0,1-26.58,5,57.6,57.6,0,0,1-26.22-6.77,46.12,46.12,0,0,1-18.18-17.7q-6.63-11.39-6.57-26.64Q1033.71,138.08,1040.66,127.05Zm84.82,232q-9.81-.13-19.61-.21a12.82,12.82,0,0,1-12.61-13.39q.48-19,1-38.09c.14-5.47-1.15-9.78-3.91-13s-6.51-4.81-11.27-4.87c-5-.07-8.94,1.47-11.81,4.59s-4.35,7.46-4.43,13l-.78,51.78q-16.27.14-32.55.43.27-71.37.55-142.74,17.07.19,34.13.6-.45,29.48-.89,59a32.49,32.49,0,0,1,12.23-10.4,36.57,36.57,0,0,1,17.66-3.67c11,.26,19.6,4.19,25.79,11.69s9,17.46,8.57,29.89Zm11.4-130.93a21.35,21.35,0,0,1-22.24,20.24q-17-.57-33.92-1h0a29.49,29.49,0,0,1,30.9-28.81q12.8.5,25.58,1.1C1137.09,222.54,1137,225.35,1136.88,228.16Zm235-30.42q17.47,2.3,34.93,4.8l-1,7.89c-1.42,10.87-12.21,18.35-24.12,16.82q-21.65-2.82-43.31-5.32C1340,206.41,1355,195.49,1371.89,197.74ZM1244.6,140.35a40.8,40.8,0,0,1,19.22-14.56c8-3,17.07-3.93,27.11-2.76a60.6,60.6,0,0,1,25.83,8.72A43.77,43.77,0,0,1,1333,149.8c3.57,7.39,4.84,15.71,3.88,25a52.76,52.76,0,0,1-1.3,7.36q-32.68-4-65.43-7.28c-.07,5.08,1.13,9,3.56,11.7a14.55,14.55,0,0,0,9.79,4.71q8.6.87,13-5.9,18.39,2,36.75,4.18a38.33,38.33,0,0,1-10.57,15.71,45.79,45.79,0,0,1-17.63,9.8,56.46,56.46,0,0,1-22.34,2,57.08,57.08,0,0,1-25.25-8.14A44.12,44.12,0,0,1,1241,190.86q-5.64-11.31-4.61-25.89C1237.08,155.27,1239.8,147,1244.6,140.35Zm-67.16,219.93q-16.28-.52-32.56-.85,2.05-47.34,4.12-94.67,16.82.71,33.6,1.59Zm6-108.79q-16.87-.94-33.76-1.71.63-14.68,1.28-29.37,17,.89,34.08,1.94Q1184.22,236.93,1183.42,251.49Zm4.64-84.39q-1.12,20.51-2.26,41-17.11-1.12-34.24-2.06,2.07-47.34,4.13-94.67,17.64,1.31,35.27,2.8-.45,8.3-.91,16.58a41.78,41.78,0,0,1,15.07-11.49,35.91,35.91,0,0,1,18.44-3q7.59.72,15.19,1.49l-.81,11.5c-.92,12.75-12.75,22-26.44,20.89-7.58-.64-13.32.29-17.13,2.79S1188.43,160.18,1188.06,167.1Zm143.32,202.11q-16.25-1.38-32.51-2.57s5.36-54.89,5.36-54.91a9.76,9.76,0,0,0-9.13-10.51,10,10,0,0,0-10.95,8.85s0,0,0,.06-1,10-1,10q-2,22.56-4.1,45.12-16.26-1.08-32.52-2,2.14-28.15,4.31-56.32a9.78,9.78,0,0,0-9.22-9.81,10,10,0,0,0-10.61,8.52q-2.13,28.29-4.25,56.59-16.21-.79-32.44-1.4,2.85-46.75,5.69-93.53,16.8,1,33.58,2.16l-.72,10.05a30.52,30.52,0,0,1,49.7,9A30.27,30.27,0,0,1,1311,275.17c16.81,1.63,29,15.89,27.24,31.65Q1334.81,338,1331.38,369.21ZM1201,252.53h0c.94-16,15.27-28.13,32-26.8q84.45,6.61,168.55,17.88l-1,7.89c-1.41,10.87-12.09,18.46-23.84,17.05Q1289,258,1201,252.53ZM1445.34,361A40.74,40.74,0,0,1,1428.72,375a39.51,39.51,0,0,1-20.91,3.18,34.33,34.33,0,0,1-15.84-5.39,27.8,27.8,0,0,1-9.59-11q-2,16-4.09,32c-1.11,8.64-9.24,15-18.15,14.2q-8-.69-16-1.34l13.14-113.35c.79-6.9,7.4-11.83,14.77-11q10.07,1.17,20.14,2.41-.81,6.39-1.63,12.79a27.52,27.52,0,0,1,12.32-8.46,36.65,36.65,0,0,1,17.37-1.45,39.7,39.7,0,0,1,19.92,8.3,38.19,38.19,0,0,1,12.28,17.65q3.79,10.88,1.72,24.4A53,53,0,0,1,1445.34,361Z"/>
	<path d="m1406.1 313.22a17 17 0 0 0-12.9 3.43c-3.75 2.89-6 7.2-6.7 12.91s0.31 10.55 3.19 14.19a16.38 16.38 0 0 0 11.48 6.27 17 17 0 0 0 12.8-3.56c3.74-2.92 6-7.19 6.81-12.85s-0.22-10.44-3.09-14.06a16.82 16.82 0 0 0-11.59-6.33z"/>
</svg>
