<?xml version="1.0" encoding="UTF-8"?>
<svg data-name="Layer 1" viewBox="0 0 1557 562.5" xmlns="http://www.w3.org/2000/svg">
	<defs>
		<style>.cls-1{fill:#00baff;}</style>
	</defs>
	<path class="cls-1" d="m403.05 126.88c-6.36-24.37-28.61-40.26-53-33.9-30.73 8.47-36 37.08-40.27 60.39s-7.38 42.38-32.78 50.85c-21.19 6.36-43.44-5.29-51.92-26.48-8.47-22.25 3.18-45.56 26.49-51.92 22.28-6.07 36.8 4.34 50.06 18.22a167 167 0 0 1 4.06-17.75l0.3-1c-14.59-14-33.2-24.59-59.72-17.45-28.6 7.42-44.49 36-38.14 63.57l-49.8 87.94h6.36a37.66 37.66 0 0 1 10.6 2.12l40.26-71c13.77 22.25 41.32 33.9 66.75 26.49 29.15-9.11 37.14-30.75 41.5-51.45l7.23 6.95c10.6 8.47 23.31 13.77 40.27 8.47 22.22-6.37 35.99-30.74 31.75-54.05zm-35 40.26c-13.78 4.24-23.31-1.06-33.91-11.65l-7.1-7.68c3.94-20.93 9.23-34.2 27.23-38.94 14.84-4.24 30.73 5.3 33.91 22.25 3.22 15.88-6.32 31.78-20.09 36.02z"/>
	<path d="m186.86 341c-1.86-1-4.25-0.95-6.3-1.2-2.56-0.31-4.72-1.4-5.63-4a9.13 9.13 0 0 1 0.33-6.24c1.33-3.45 3.19-6.73 4.06-10.35a21.93 21.93 0 0 0-0.38-11.78 20.56 20.56 0 0 0-9.85-12c-11.4-6-25.16 1-28.66 13a42.61 42.61 0 0 0-1.22 4.89c-0.36 2.13-0.87 4.81-0.18 6.9a3.4 3.4 0 0 0 3.22 2.5 4.28 4.28 0 0 0 2.81-1.91c1.9-2.5 2.08-5.72 3.75-8.32a12 12 0 0 1 9.93-5.54 12.35 12.35 0 0 1 9.65 4.94c2.91 3.84 2.68 8.27 1.38 12.7-1.89 6.42-4 13.12 0.36 19.1a13.21 13.21 0 0 0 13.36 5.31 7.46 7.46 0 0 0 3.69-1.75c1.9-1.77 2.15-4.86-0.32-6.25z"/>
	<path d="M320.94,254.64a69.6,69.6,0,0,0,3,6.45,39.92,39.92,0,0,0,6.35,9.11,36.07,36.07,0,0,0,5.08,4.4h0c.29.16.63.38.73.29l4.93-4.44h0l1.36-1.22c-.35-4-1.8-7.63-3.25-11.29a37.84,37.84,0,0,0-3.31-6.46,33.52,33.52,0,0,0-3-4.07,13.05,13.05,0,0,0-3.91-3.12,6.53,6.53,0,0,0-2.2-.63,6.62,6.62,0,0,0-4.37,1,5.45,5.45,0,0,0-1.59,1.65,6.22,6.22,0,0,0-.78,2,9.49,9.49,0,0,0,.26,4.26A17.75,17.75,0,0,0,320.94,254.64Z"/>
	<path d="M376.32,245.49c1.07,3.8,2.15,7.58,4.27,10.95l.73.06c1.73-.11,3.42-.36,5.18-.36,1,0,2,.15,3.06.21a42,42,0,0,0,1.25-6.48,40.11,40.11,0,0,0-.48-11.1c-.39-2.33-.93-4.64-1.55-6.92-.73-2.68-2.11-5.61-4.9-6.69a6.41,6.41,0,0,0-7.74,3.3c-1.49,3-1.38,6.65-1.11,9.89A37.67,37.67,0,0,0,376.32,245.49Z"/>
	<path d="m385.23 270.05a10 10 0 0 0-1.39 6.59c0.41 3.4 3.48 6.73 7.05 4.77a6.75 6.75 0 0 0 3.11-4.41c0.72-3.11 0.45-7.93-3-9.38a3.92 3.92 0 0 0-1.36-0.33c-1.86-0.12-3.39 1.14-4.41 2.76z"/>
	<path d="m364.7 286.7c3.51 2 11 2.27 9.91-3.65a8.76 8.76 0 0 0-8.93-6.81 6.31 6.31 0 0 0-3.27 1.21 4.54 4.54 0 0 0-1.78 3 4.84 4.84 0 0 0 0.72 3.07 9.21 9.21 0 0 0 3.35 3.18z"/>
	<path d="m317.32 123.91c-5-0.83-9.91-1.45-14.87-1.79 1.18 1 2.38 2.06 3.51 3.14l-0.3 1a167 167 0 0 0-4.06 17.74c-13.26-13.88-27.78-24.29-50.06-18.22-23.31 6.36-35 29.67-26.49 51.92 8.48 21.19 30.73 32.84 51.92 26.48 25.43-8.47 28.61-27.54 32.84-50.85 1.74-9.49 3.75-19.86 7.51-29.42z"/>
	<path d="m368.09 167.14c13.77-4.24 23.31-20.13 20.13-36-3.18-17-19.07-26.49-33.91-22.25-18 4.74-23.28 18-27.23 38.94l7.1 7.68c10.6 10.57 20.13 15.87 33.91 11.63z"/>
	<path d="M464.5,324c-.8-3.24-5.93-18.44-6.36-19.07a15.53,15.53,0,0,1,1.22-1.95c.39-.67.76-1.34,1.13-2a43.41,43.41,0,0,0,1.85-4,34.59,34.59,0,0,0,2.16-7.67,28.22,28.22,0,0,0-1.34-14.08,33.34,33.34,0,0,0-7.88-12,51.85,51.85,0,0,0-13.22-9.39,68,68,0,0,0-12.94-5.14,48.21,48.21,0,0,0-7-1.41c-.47-.06-5.23-.31-5.26-.67-1.31-15.44.23-33.36-4.23-49.79-3.55-13.22-10-23.23-17.74-33.38-5.7,8.22-13.74,14.67-23.58,17.48-17,5.3-29.67,0-40.27-8.47l-7.23-6.95c-2.82,13.4-7.27,27.14-17.9,37.68A125.48,125.48,0,0,1,331,205.28c11.66,1.06,23.31-3.18,32.85-10.59,7.72-7.11,15.86-9.91,26.49-5.3,9.53,6.36,10.59,21.19,10.59,32.85L402,248.72c.16,3.91,0,9.18,4,11.35a7.57,7.57,0,0,0,1.76.69c1.46.36,2.89.86,4.33,1.31,2.22.7,4.45,1.36,6.68,2,1.93.58,3.7,1.48,5.6,2,4.26,1.23,8.52,2.33,12.46,4.42,4.41,2.34,8.36,5.87,10.22,10.5a19.39,19.39,0,0,1-.81,15.13c-3.69,8-11.25,12.94-18.51,17.39a131.11,131.11,0,0,1-24.45,11.72,174,174,0,0,1-57.51,10.12,158.38,158.38,0,0,1-25.36-1.94c-19.07-2.12-29.67,22.25-18,39.2a43.22,43.22,0,0,0,8.84,8A51.25,51.25,0,0,0,322,386.16a67.24,67.24,0,0,0,12.16,3.29,91.64,91.64,0,0,0,13.22,1.31,118.63,118.63,0,0,0,13.85-.46c4.72-.42,9.41-1.09,14.07-2s9.3-2,13.88-3.26,8.92-2.7,13.29-4.32q6.24-2.33,12.28-5.15c3.7-1.74,7.34-3.64,10.86-5.73a88.64,88.64,0,0,0,9-6.09,48.12,48.12,0,0,0,4.16-3.5c1.3-1.28,2.53-2.63,3.7-4,.58-.7,1.16-1.41,1.72-2.13a15.16,15.16,0,0,0,1.59-2.09.71.71,0,0,0,0-.72c-.32-.53-1.08-.11-1.41.18-9.87,8.59-73.52,42.43-120.78,24.37-4.24-2.12-13.78-6.35-14.84-15.89C350.08,372.68,375.5,361,375.5,361a1.06,1.06,0,0,0,0-2.12s-33.9,5.3-65.69-6.36c3.18-11.65,12.72-7.41,26.49-6.35,46.42.8,77.48-6.53,111.25-31.79,5.3,10.6,6.36,23.31,6.36,23.31,7.07-1.36,13.72,2.43,11.65,15.89-14.07,88.2-156.37,116.87-191.77,38.14A80.42,80.42,0,0,1,288.62,307c2.71-2.74,2.64-5.75,0-8.48C282.27,289,259,272,264.26,241.31A44.39,44.39,0,0,1,275,218.37c-23.27,3.53-47-7.77-59.51-27.92l-40.26,71a37.66,37.66,0,0,0-10.6-2.12h-6.35l49.79-87.94a53.77,53.77,0,0,1,1.16-28c-36.21,21.61-62.25,59.78-60.49,117,0,1.49-3.34,1.77-4.29,2a31.1,31.1,0,0,0-6.07,2.23,48.14,48.14,0,0,0-7.36,4,60.46,60.46,0,0,0-18,20.27q-1,1.72-1.83,3.51A63.68,63.68,0,0,0,116.38,357c11.37,16.22,31.57,27.52,51.55,27.37,1.74-.18,1.62,2.2,2.47,3.41,25.78,56.37,83.61,90.22,150,91,69.18,1.36,128.91-35.45,151.68-92.93C476.3,374.17,491.35,327.21,464.5,324ZM181.61,366.33C156,376.26,123,353.65,120.16,326.07c-1.75-23,7.6-46.15,32.85-50.86,19.06-3.49,39.53,5.24,45.56,38.14C202.8,336.66,198.57,358.91,181.61,366.33Z"/>
	<path class="cls-1" d="m752.56 306.44a15.85 15.85 0 0 0-11.84 6.81c-2.93 4.06-4.06 9.46-3.43 16.18s2.71 11.66 6.29 15.15a15.07 15.07 0 0 0 12.7 4.47 15.93 15.93 0 0 0 11.62-6.9c3-4.1 4.19-9.49 3.64-16.17s-2.61-11.58-6.24-15a15.61 15.61 0 0 0-12.74-4.54z"/>
	<path class="cls-1" d="m637 192.17a16.37 16.37 0 0 0 12.08-7.17c3-4.24 4.15-9.69 3.38-16.37s-3.13-11.91-7.06-15.36a17.4 17.4 0 0 0-13.6-4.43 16.45 16.45 0 0 0-12.22 7.07c-3 4.22-4.1 9.68-3.26 16.4s3.26 12 7.2 15.47a17 17 0 0 0 13.48 4.39z"/>
	<path class="cls-1" d="m1085.2 177.23a15.64 15.64 0 0 0 12.22-4.72c3.32-3.33 5.09-8.23 5.27-14.72s-1.32-11.51-4.51-15.09a16.4 16.4 0 0 0-11.92-5.71 15.28 15.28 0 0 0-12.07 4.62q-4.9 4.95-5 14.75-0.17 10 4.34 15.29a15.43 15.43 0 0 0 11.67 5.58z"/>
	<path class="cls-1" d="m1298.9 155a17.18 17.18 0 0 0-10.37-4.55q-6.42-0.72-10.77 2t-6.12 8.87q15.35 1.59 30.67 3.34a11.33 11.33 0 0 0-3.41-9.66z"/>
	<path class="cls-1" d="M1467.43,311.41a52.85,52.85,0,0,0-17-24.31,56.65,56.65,0,0,0-28.14-11.86,57.72,57.72,0,0,0-16.13,0,32.77,32.77,0,0,0,10.17-19.48c.35-2.62.71-5.24,1.06-7.86.71-5.25,3.4-25.27,4.45-33,.35-2.62.71-5.24,1.06-7.86,1.08-8-5.27-15.58-14.2-16.89q-17.52-2.58-35.09-5a49.14,49.14,0,0,0-21.91,1.93,67.3,67.3,0,0,0,1.42-8.16c1.3-11.77-.39-22.69-5.09-32.47a60.17,60.17,0,0,0-22.27-24.78,79.31,79.31,0,0,0-33.51-11.55c-12.82-1.54-24.71-.32-35.28,3.64-1,.36-1.9.77-2.84,1.18a17.38,17.38,0,0,0-14.31-10.26q-7.63-.8-15.26-1.54c-7.67-.95-68.15-6.14-68.16-6-9.18-.71-16.89,5.72-17.21,14.31,0,1.45-.11,2.9-.16,4.35A65.74,65.74,0,0,0,1122,102a78.5,78.5,0,0,0-34.75-9.87c-12.82-.71-24.66,1.34-35.13,6.12a58.25,58.25,0,0,0-25.08,21.53,61.18,61.18,0,0,0-14.87-17.24c-11.79-9.42-26.34-14.45-43.1-14.76-12.79-.23-24.43,2.35-34.53,7.7a56.59,56.59,0,0,0-20.38,18.1,50.5,50.5,0,0,0-42.74-25.55A46.58,46.58,0,0,0,842,97.72,49.48,49.48,0,0,0,813,89.28c-5.74,0-64.42,2.39-64.42,2.54Q747.47,78.91,746.39,66a17.59,17.59,0,0,0-18.27-16q-18,.87-36.07,1.94a16.12,16.12,0,0,0-15.13,18l3.33,32.1c.22,2.09,1,9.77,1.23,11.85,0,.25,0,.5.08.75a59,59,0,0,0-12.37-9,56.2,56.2,0,0,0-32-6.65c-7.6.48-64.32,6.39-64.31,6.54a15.76,15.76,0,0,0-11.08,6.35,17.23,17.23,0,0,0-3.1,12.79q8.19,59.08,16.39,118.18a57.91,57.91,0,0,0,17.57,34c-3.36.82-51.11,7.88-51.09,8-8.67,1.35-14.45,10.27-12.92,19.88l13.86,87.55c3.19,19.9,19.63,33.41,36.67,30.32q59.13-10.64,118.6-18.81c8.12-1.12,14-9.27,13.31-18.39a51.34,51.34,0,0,0,10.09,7.32c9,5,20.15,5.39,30.39,4.18C758.4,395.46,861,385.43,861.07,386c6.22-.51,11.36-5,13.4-11a29.59,29.59,0,0,0,22.45,8.22c5.34-.37,10.69-.71,16-1,8.34-.52,14.9-8.18,14.63-17.16,0-.15,0-.3,0-.45a55.49,55.49,0,0,0,12.91,9.27,62.06,62.06,0,0,0,31.76,6.63c15.25-.64,28.37-5.76,39.19-15.21,1-.86,1.92-1.76,2.84-2.67.4,8.45,7,15,15.14,14.81q16.18-.36,32.37-.54c8.37-.1,15.3-7.18,15.49-15.87l.66-13.37c-.3,16.07,12,29,27.46,29.07q9.75,0,19.5.14c1.82,0,53.07.46,103.83,2.95,50.77,2.17,101,6.38,101,6.37a16.91,16.91,0,0,0,1.74,0q-1.18,10.71-2.36,21.43a14.33,14.33,0,0,0,13.33,15.89q8,.61,15.88,1.27c17.09,1.39,32.81-10.77,35.05-27.34l.69-5.15a56.53,56.53,0,0,0,64.06-21.14,66.75,66.75,0,0,0,11.46-28.9C1471.37,331.07,1470.66,320.73,1467.43,311.41ZM693.72,68.83q17.94-1.12,35.87-2,1.39,15.92,2.8,31.84-17.76,1-35.51,2.21Q695.29,84.84,693.72,68.83ZM698,112.67q17.69-1.24,35.38-2.28,4.5,51.3,9,102.61-10.3.81-20.6,1.69c-7.51.64-14.24-5.24-15-13.17ZM575.22,122.73q17.26-1.41,34.55-2.64l1.83,14.54a29,29,0,0,1,10.24-12.69c4.69-3.33,10.48-5.3,17.33-5.91a39.53,39.53,0,0,1,22.63,4.61,45.51,45.51,0,0,1,17.43,17.22q6.9,11.55,8.54,27.58t-2.63,28.62q-4.26,12.6-13.08,20a37.22,37.22,0,0,1-20.46,8.7,33.86,33.86,0,0,1-17.68-2.38,32.25,32.25,0,0,1-12.85-10.25q4.33,31.38,8.65,62.76C611.19,275.28,593.89,261,591,240.64Q583.09,181.68,575.22,122.73Zm120.72,264q-16.12,2.16-32.24,4.49s-7.5-62.85-7.5-62.88c-.72-6.09-5.8-10.46-11.33-9.72s-9.39,6.3-8.62,12.42c0,0,0,.05,0,.07l1.39,11.45q3.24,25.78,6.47,51.57Q628,396.62,612,399.25q-4.44-32.07-8.89-64.13c-1.14-5.73-6-9.72-11.28-8.92s-8.84,6.07-8.37,11.93l9,64.37q-7.92,1.35-15.84,2.75c-8.9,1.57-17.41-5.45-19-15.75q-6.69-43.68-13.39-87.35,16.63-2.67,33.3-5.14.83,5.72,1.63,11.42c4.46-8.26,12.08-14.29,21.48-15.61,11.75-1.64,22.79,4.44,29.12,14.48,3.7-11.65,13.21-20.48,25.35-21.61,16.62-1.54,31.25,12.16,33.15,30.06Zm-45.58-116.4-3,.35c-2.18-17.89,12.58-34.27,29.28-36q60.34-6.23,120.85-10.09c.21,3,.43,6,.64,9,.86,12.43-8,23.18-19.78,24.1Q714.29,262.72,650.36,270.37ZM808.11,374q-16.2,1.53-32.39,3.25L774.56,363a30.21,30.21,0,0,1-9.9,12.46,32.49,32.49,0,0,1-16,6.05A33.53,33.53,0,0,1,728,377.45q-9.63-5.32-16.09-16.76t-8.15-27.49q-1.66-16,2.42-28.63t12.79-20a35.41,35.41,0,0,1,20.13-8.44,33.07,33.07,0,0,1,17.46,2.64,29.07,29.07,0,0,1,12,10.34c-.65-7.85,4.8-14.73,12.18-15.31q10.1-.81,20.19-1.55Zm52.08-4.47q-16.23,1.25-32.44,2.67Q825,328.55,822.16,285c-.51-7.78,5.07-14.48,12.45-14.94q10.1-.63,20.21-1.18ZM854,252.9q-16.87.87-33.75,1.94l-2-31.42q17-1,34.09-1.75Q853.14,237.29,854,252.9Zm58.4,112.9q-8.05.46-16.13,1c-9,.59-16.69-6.79-17.16-16.53q-3-64.74-6-129.47,6.23-.24,12.47-.46a21.94,21.94,0,0,1,22.42,21.39ZM906.1,190.69A13.63,13.63,0,0,1,893,204.91q-10.32.3-20.63.68s-2.85-60.46-2.85-60.48a10.92,10.92,0,0,0-11.13-10.36,10.31,10.31,0,0,0-10.05,10.94s0,.05,0,.08.54,11,.53,11q1.33,24.82,2.65,49.64-17.13.74-34.25,1.65-2.06-30.88-4.13-61.79A10.88,10.88,0,0,0,802,136.7a10.28,10.28,0,0,0-9.77,10.52q2.12,31,4.22,62-17.06,1-34.12,2.26L754,109.24q17.7-.93,35.4-1.66l.78,11A30.41,30.41,0,0,1,814,105.85a32.86,32.86,0,0,1,29.41,16.61,30.51,30.51,0,0,1,28.35-18c17.56.19,31.82,14.67,32.41,31.87Q905.14,163.5,906.1,190.69ZM961,329.9a11,11,0,0,0,9.91,5.11q8.86-.28,11.6-10,17.49-.46,35-.72c-2.35,12.08-7.6,21.63-15.64,28.69s-18,10.83-29.8,11.29c-9.18.35-17.36-1.33-24.61-5.12a41.84,41.84,0,0,1-17.22-16.89c-4.23-7.48-6.54-16.42-6.86-26.81s1.41-19.34,5.26-27.15a42.62,42.62,0,0,1,16.68-18.2,50.14,50.14,0,0,1,25.16-6.71c12.24-.2,22.57,3.11,30.94,9.84s13.71,16.17,16.08,28.31q-17.61.17-35.23.54c-2.12-6.37-6.13-9.51-12-9.37a11.42,11.42,0,0,0-9.84,5.61c-2.38,3.64-3.47,8.93-3.32,15.85S958.48,326.34,961,329.9ZM923.07,228.06l-.27-8.81q29.6-.67,59.19-.78a30.32,30.32,0,0,1,30.35,30.31q-33.58,0-67.18.74C933.35,249.79,923.46,240.22,923.07,228.06ZM959.28,170a12.21,12.21,0,0,0,10.43,5.45q9.35,0,12.24-9.59,18.42.13,36.83.48-3.72,18-16.49,28.14c-8.52,6.79-19,10.2-31.43,10.26a54.23,54.23,0,0,1-26-5.95,45,45,0,0,1-18.12-17.44q-6.67-11.42-7.18-27c-.33-10.27,1.52-19.27,5.61-27a41.77,41.77,0,0,1,17.6-17.64q11.5-6.09,26.5-5.87c12.88.2,23.75,3.86,32.56,10.86s14.41,16.62,16.91,28.84q-18.56-.43-37.1-.65c-2.22-6.44-6.44-9.71-12.63-9.77a11.79,11.79,0,0,0-10.37,5.29c-2.51,3.56-3.67,8.8-3.53,15.72S956.66,166.38,959.28,170Zm81.38-40.86a43.4,43.4,0,0,1,19-16.55q12.06-5.52,27.23-4.72a60.23,60.23,0,0,1,26.95,7.49,47.4,47.4,0,0,1,18.27,18.14q6.48,11.46,5.89,26.18c-.38,9.82-3,18.29-7.77,25.46a45,45,0,0,1-19.08,16.21,62.25,62.25,0,0,1-52.8-1.78,46.18,46.18,0,0,1-18.18-17.7q-6.63-11.4-6.57-26.64Q1033.71,140.18,1040.66,129.15Zm84.82,232q-9.81-.13-19.61-.21a12.83,12.83,0,0,1-12.61-13.39q.48-19.05,1-38.09c.14-5.47-1.15-9.79-3.91-13s-6.51-4.81-11.27-4.88c-5-.06-8.94,1.48-11.81,4.6s-4.35,7.45-4.43,13L1062,361q-16.27.12-32.55.43.27-71.37.55-142.75,17.07.21,34.13.6-.45,29.49-.89,59a32.46,32.46,0,0,1,12.23-10.39,36.58,36.58,0,0,1,17.66-3.68c11,.27,19.6,4.19,25.79,11.69s9,17.47,8.57,29.89Zm11.4-130.93a21.36,21.36,0,0,1-22.24,20.24q-17-.57-33.92-.95h0a29.49,29.49,0,0,1,30.9-28.81q12.8.49,25.58,1.09C1137.09,224.64,1137,227.45,1136.88,230.26Zm235-30.43q17.47,2.31,34.93,4.81l-1,7.89c-1.42,10.86-12.21,18.35-24.12,16.81q-21.65-2.81-43.31-5.32C1340,208.5,1355,197.58,1371.89,199.83ZM1244.6,142.44a40.87,40.87,0,0,1,19.22-14.56c8-3,17.07-3.93,27.11-2.75a60.73,60.73,0,0,1,25.83,8.71A43.79,43.79,0,0,1,1333,151.9c3.57,7.39,4.84,15.71,3.88,25a53.28,53.28,0,0,1-1.3,7.36q-32.68-4-65.43-7.28c-.07,5.07,1.13,9,3.56,11.69a14.55,14.55,0,0,0,9.79,4.71q8.6.89,13-5.9,18.39,2,36.75,4.18a38.43,38.43,0,0,1-10.57,15.72,45.79,45.79,0,0,1-17.63,9.8,56.64,56.64,0,0,1-22.34,2,57.21,57.21,0,0,1-25.25-8.15A44.12,44.12,0,0,1,1241,193q-5.64-11.3-4.61-25.88C1237.08,157.36,1239.8,149.13,1244.6,142.44Zm-67.16,219.93q-16.28-.51-32.56-.85,2.05-47.32,4.12-94.67,16.82.7,33.6,1.6Zm6-108.78q-16.87-1-33.76-1.71.63-14.69,1.28-29.37,17,.87,34.08,1.94Q1184.22,239,1183.42,253.59Zm4.64-84.4q-1.12,20.52-2.26,41-17.11-1.12-34.24-2.05,2.07-47.34,4.13-94.67,17.64,1.29,35.27,2.8-.45,8.28-.91,16.57a41.76,41.76,0,0,1,15.07-11.48,35.91,35.91,0,0,1,18.44-3q7.59.72,15.19,1.48l-.81,11.51c-.92,12.74-12.75,22-26.44,20.89-7.58-.65-13.32.29-17.13,2.79S1188.43,162.27,1188.06,169.19ZM1331.38,371.3q-16.25-1.37-32.51-2.56s5.36-54.89,5.36-54.92a9.77,9.77,0,0,0-9.13-10.51,10,10,0,0,0-10.95,8.85s0,0,0,.07-1,10-1,10q-2,22.56-4.1,45.13-16.26-1.08-32.52-2,2.14-28.17,4.31-56.33a9.78,9.78,0,0,0-9.22-9.81,10,10,0,0,0-10.61,8.52q-2.13,28.31-4.25,56.59-16.21-.78-32.44-1.39,2.85-46.77,5.69-93.54,16.8,1,33.58,2.17l-.72,10a30.53,30.53,0,0,1,49.7,9,30.25,30.25,0,0,1,28.37-13.4c16.81,1.63,29,15.89,27.24,31.65Q1334.81,340.11,1331.38,371.3ZM1201,254.63h0c.94-16,15.27-28.14,32-26.81q84.45,6.62,168.55,17.88l-1,7.89c-1.41,10.87-12.09,18.46-23.84,17.06Q1289,260.09,1201,254.63Zm244.37,108.48A40.72,40.72,0,0,1,1428.72,377a39.52,39.52,0,0,1-20.91,3.19,34.44,34.44,0,0,1-15.84-5.39,27.93,27.93,0,0,1-9.59-11q-2,16-4.09,32c-1.11,8.64-9.24,15-18.15,14.21q-8-.69-16-1.34l13.14-113.36c.79-6.9,7.4-11.83,14.77-11q10.07,1.17,20.14,2.41-.81,6.4-1.63,12.8a27.54,27.54,0,0,1,12.32-8.47,36.66,36.66,0,0,1,17.37-1.44,39.77,39.77,0,0,1,19.92,8.29,38.19,38.19,0,0,1,12.28,17.65q3.79,10.88,1.72,24.4A53,53,0,0,1,1445.34,363.11Z"/>
	<path class="cls-1" d="m1406.1 315.31a17 17 0 0 0-12.9 3.44c-3.75 2.88-6 7.19-6.7 12.91s0.31 10.55 3.19 14.19a16.33 16.33 0 0 0 11.48 6.26 17 17 0 0 0 12.8-3.56q5.61-4.37 6.81-12.84 1.21-8.64-3.09-14.07a16.86 16.86 0 0 0-11.59-6.33z"/>
</svg>
