<?xml version="1.0" encoding="utf-8"?>
<svg xmlns="http://www.w3.org/2000/svg" viewBox="0 0 128 128" fill="#FFFFFF" width="24px" height="24px">
    <path
        d="M127.94,85a7,7,0,0,0-2.09-4.46,4.6,4.6,0,0,0-2.71-1.14l-.13,0-2.07-4.86c.87-1.45,2.12-4.19,1.26-7-.69-2.22-2.5-3.86-5.38-4.87a51.17,51.17,0,0,0-9.26-6.26,2,2,0,0,1-.9-1.25c-.55-5.24-1.7-11.49-4.08-15.64a1.93,1.93,0,0,0-.27-.67,3.56,3.56,0,0,0-.66-.75,9.24,9.24,0,0,0-1.78-1.85,25.77,25.77,0,0,0-2.49-6c5.71-13.5,6.14-22.37,1.29-27-7.67-7.4-25.32-.19-30.2,2l-4.41-3A13.4,13.4,0,0,0,55.2.16C39.55,3.14,24,20,19.59,25.12,8.78,37.67,4.14,48.62,3.65,49.81c-4,7.87-4.72,14.29-2.11,19.08a14.28,14.28,0,0,0,8.67,6.53A16.78,16.78,0,0,0,8.89,82,17.61,17.61,0,0,0,26.54,99.29a41.08,41.08,0,0,0,2.85,4.81C39.35,118.5,58,128,75.3,128a44.87,44.87,0,0,0,5.33-.31c21.25-2.54,37.73-14.67,45.23-33.3C126.89,91.82,128.31,88.29,127.94,85Zm-10.15-7.68,1.68,4c-16.39,19-39,15.34-40,15.17a2.29,2.29,0,0,1-1.23-.68c4.22-.45,14-1.67,20.42-3.89a2,2,0,0,0-1.3-3.79c-6.29,2.17-16.31,3.37-20,3.76a3.51,3.51,0,0,1,3-2.12C102,87.25,114.24,79.82,117.79,77.35ZM76.52,65A2,2,0,0,1,73.81,62a8.7,8.7,0,0,1,11.83.12A2,2,0,0,1,85.85,65a1.86,1.86,0,0,1-.79.55A2,2,0,0,1,85.42,67a2,2,0,0,1-2.31,1.63c-2.37-.42-4.44,1.63-4.46,1.65a2,2,0,0,1-1.42.59,2,2,0,0,1-1.4-.58,2,2,0,0,1,0-2.81,10.31,10.31,0,0,1,6.48-2.9A4.69,4.69,0,0,0,76.52,65Zm13.65,4.73c.43-.66,1.58-.67,2.56,0s1.42,1.71,1,2.38-1.59.67-2.57,0S89.73,70.37,90.17,69.71ZM100.37,68c-.1,1.17-.82,2.07-1.61,2s-1.36-1.07-1.25-2.24.82-2.06,1.61-2S100.47,66.84,100.37,68Zm-.12-7.34a2,2,0,0,1-2,1.93h-.06a2,2,0,0,1-1.94-2.06A3.41,3.41,0,0,0,95,57.64l0,1.75a2,2,0,0,1-2,2,2,2,0,0,1-2-2L91,54.71a2,2,0,0,1,2.24-2C95.75,53,100.43,55.06,100.25,60.66ZM73,7.76l0,0C80,5,91.39,1.79,95.9,6.14c3.18,3.07,2.74,10-1.24,20.23a26.64,26.64,0,0,0-6.36-5.54c-7.63-4.78-17.76-6-30.17-3.67A142.52,142.52,0,0,1,73,7.76ZM122.14,92.9c-6.93,17.23-22.23,28.46-42,30.82-17.31,2.07-37.28-7.15-47.48-21.89a35.12,35.12,0,0,1-1.85-3A17.47,17.47,0,0,0,44.56,82a2,2,0,0,0-4,0A13.6,13.6,0,0,1,26.73,95.29a13.35,13.35,0,1,1,0-26.68,2,2,0,0,0,0-4,18.17,18.17,0,0,0-5.85,1c2.18-7.5,9.25-25.29,30-42.74a1.73,1.73,0,0,0,.78-.06C66.38,18.65,78,19.12,86.11,24.17a23,23,0,0,1,9.52,12c-.58-.06-1.15-.09-1.69-.1-4.47-.1-8,1.22-9.67,3.61A5.64,5.64,0,0,1,78.81,42a1.46,1.46,0,0,0-.22,0,46.65,46.65,0,0,0-9.09,0c-1.1,0-7.72.26-11.57,5.17-2.34,3-3.13,7-2.38,11.84a10.09,10.09,0,0,1-3.81-1.62A2,2,0,0,0,48,58.46c.15,3.68,2.84,11.09,11.88,13.23l2.25,1.7c-3,3-8.18,9.85-6.33,18.21a20.45,20.45,0,0,0,7.51,13.88,2,2,0,0,0,3.2-1.2l.15-.78a21.68,21.68,0,0,0,7.84,7.67A22.91,22.91,0,0,0,86,114a40.23,40.23,0,0,0,12.55-2.25c.81-.3,19.29-7.42,24.9-27.89a3.21,3.21,0,0,1,.55,1.62C124.22,87.74,123,90.72,122.14,92.9Z"/>
    <path
        d="M57.65 40.49c.3-.26 3-2.58 2.52-5.42a4.14 4.14 0 0 0-.55-1.51c2-.54 4.52-.76 6.32.89a2 2 0 0 0 2.53.14A6.8 6.8 0 0 0 71 28a8.59 8.59 0 0 1 7.27 4.06 2 2 0 0 0 3.46-2c-4.39-7.53-13.49-5.94-13.87-5.87a2 2 0 0 0-1.38 2.94 3.57 3.57 0 0 1 .44 3.12c-5.29-2.89-11.86.8-12.17 1A2 2 0 0 0 55 34.81c1 .4 1.23.76 1.24.86a2.71 2.71 0 0 1-.84 1.46c-12 3-20.72 17.23-21.09 17.84A2 2 0 0 0 37.71 57c.08-.14 8.53-13.85 19.07-16.14A2 2 0 0 0 57.65 40.49zM30 74.16A2 2 0 0 0 28.14 72a9 9 0 0 0-6.59 2.3A10.9 10.9 0 0 0 18 81.9 2 2 0 0 0 19.9 84H20a2 2 0 0 0 2-1.89 6.88 6.88 0 0 1 2.2-4.79A5 5 0 0 1 27.87 76 2 2 0 0 0 30 74.16zM33.65 79.32A2 2 0 0 0 31 76.39 3.48 3.48 0 0 0 29.38 79c-.11 1.69 1.16 2.89 2 3.68a2.46 2.46 0 0 1 .62.8.82.82 0 0 1-.19.23 1.53 1.53 0 0 1-1.18.25 2 2 0 1 0-1.28 3.79 4.87 4.87 0 0 0 1.56.25 5.4 5.4 0 0 0 3.67-1.4A4.21 4.21 0 0 0 36 83.5a5.17 5.17 0 0 0-1.87-3.72z"/>
</svg>
